HIERARCHY
ROOT HipCenter
{
    OFFSET 0.0 0.0 -0.0
    CHANNELS 6 Xposition Yposition Zposition Zrotation Xrotation Yrotation
    JOINT Spine
    {
        OFFSET 0.0 8.075536727905273 0.0
        CHANNELS 3 Zrotation Xrotation Yrotation
        JOINT ShoulderCenter
        {
            OFFSET 0.0 35.180057525634766 0.0
            CHANNELS 3 Zrotation Xrotation Yrotation
            JOINT LeftShoulder
            {
                OFFSET 20.88031005859375 0.0 0.0
                CHANNELS 3 Zrotation Xrotation Yrotation
                JOINT LeftElbow
                {
                    OFFSET 25.98353385925293 0.0 0.0
                    CHANNELS 3 Zrotation Xrotation Yrotation
                    JOINT LeftWrist
                    {
                        OFFSET 23.957508087158203 0.0 0.0
                        CHANNELS 3 Zrotation Xrotation Yrotation
                        JOINT LeftHand
                        {
                            OFFSET 6.268749237060547 0.0 0.0
                            CHANNELS 3 Zrotation Xrotation Yrotation
                            End Site
                            {
                                OFFSET 2.5074992179870605 0.0 0.0
                            }
                        }
                    }
                }
            }
            JOINT RightShoulder
            {
                OFFSET -20.88031005859375 0.0 0.0
                CHANNELS 3 Zrotation Xrotation Yrotation
                JOINT RightElbow
                {
                    OFFSET -25.98353385925293 0.0 0.0
                    CHANNELS 3 Zrotation Xrotation Yrotation
                    JOINT RightWrist
                    {
                        OFFSET -23.957508087158203 0.0 0.0
                        CHANNELS 3 Zrotation Xrotation Yrotation
                        JOINT RightHand
                        {
                            OFFSET -6.268749237060547 0.0 0.0
                            CHANNELS 3 Zrotation Xrotation Yrotation
                            End Site
                            {
                                OFFSET -2.5074992179870605 0.0 0.0
                            }
                        }
                    }
                }
            }
            End Site
            {
                OFFSET 0.0 14.072021484375 0.0
            }
        }
    }
    JOINT LeftHip
    {
        OFFSET 10.958733558654785 0.0 0.0
        CHANNELS 3 Zrotation Xrotation Yrotation
        JOINT LeftKnee
        {
            OFFSET 0.0 -47.02344512939453 0.0
            CHANNELS 3 Zrotation Xrotation Yrotation
            JOINT LeftAnkle
            {
                OFFSET 0.0 -36.422943115234375 0.0
                CHANNELS 3 Zrotation Xrotation Yrotation
                JOINT LeftFoot
                {
                    OFFSET 0.0 -7.750168800354004 0.0
                    CHANNELS 3 Zrotation Xrotation Yrotation
                    End Site
                    {
                        OFFSET 0.0 0.0 3.1000678539276123
                    }
                }
            }
        }
    }
    JOINT RightHip
    {
        OFFSET -10.958733558654785 0.0 0.0
        CHANNELS 3 Zrotation Xrotation Yrotation
        JOINT RightKnee
        {
            OFFSET 0.0 -47.02344512939453 0.0
            CHANNELS 3 Zrotation Xrotation Yrotation
            JOINT RightAnkle
            {
                OFFSET 0.0 -36.422943115234375 0.0
                CHANNELS 3 Zrotation Xrotation Yrotation
                JOINT RightFoot
                {
                    OFFSET 0.0 -7.750168800354004 0.0
                    CHANNELS 3 Zrotation Xrotation Yrotation
                    End Site
                    {
                        OFFSET 0.0 0.0 3.1000678539276123
                    }
                }
            }
        }
    }
}
MOTION
Frames: 9
Frame Time: 0.03333333333333333
-7.639200210571289 -10.710100173950195 -285.60491943359375 5.100547183816442 -36.21920817047138 -172.71664031085908 0.08462389795708412 -38.52283513433185 0.8009964044522168 -5.924212521640833e-08 -2.694488643835606e-07 0.7702271189002625 -58.89523799294595 -20.70017928979347 17.067515413276542 -9.968959150606218e-07 -4.658828333045894e-06 140.9176209021225 5.48973630493938e-06 38.89142975554088 44.81087357356217 -6.361109362927032e-15 -3.180554681463516e-15 -3.180554681463516e-15 75.43129707985108 -19.4955759667575 -29.661288500043508 8.802796619989835e-07 3.305935963852468e-06 -134.02320881398504 -7.045157644768725e-07 -16.953587505481416 -26.424946781781763 6.361109362927033e-15 0.0 0.0 -0.6655456912258554 -50.41532847312934 19.25801386163655 -1.474338415173647 10.537286982956944 -8.29616029777738 40.03163773626109 22.59903637068656 -60.70364637177649 0.0 0.0 0.0 -1.980652204801567 -47.74765358362182 -18.241564012677305 2.9250645577032346 5.329069067841362 4.389103315184054 -35.18161328369507 35.438095492099656 64.51163413448904 0.0 0.0 0.0
-7.6498003005981445 -10.690899848937988 -285.5802917480469 5.100209523795108 -36.43352933651784 -172.73341191429665 0.06934724350252745 -38.730334218039395 0.812396119693221 1.9903878681045454e-08 -2.0953689861751184e-08 0.39436023240916857 -58.99228385216869 -20.489373500910652 17.2897169464935 -3.207501720470141e-06 1.6660441827802113e-06 141.05099227624703 -1.1112726124929474e-06 39.32518455783979 43.645516890631 6.3611093629270335e-15 -3.1805546814635168e-15 1.7655625192200634e-31 75.95457793422038 -19.208973974495134 -29.243901535567126 4.015650512456278e-06 -2.2148524784386504e-07 -134.1460627149061 8.271095079287356e-07 -18.202268168894584 -26.185168558094297 -6.3611093629270335e-15 -4.4139062980501586e-32 7.951386703658792e-16 -0.6780449697220787 -50.635028646340146 19.282332681598298 -1.5040905140271303 10.536830993868 -8.298045724331553 40.09556345144156 22.520822391025845 -60.771579786639585 -3.180554681463516e-15 -4.4139062980501586e-32 1.590277340731758e-15 -1.7163064687743437 -47.99918615574582 -17.992716689050646 2.4328947285789146 5.030026164993607 4.189313486045552 -35.49126507821748 35.643392054141046 65.58517323159683 -3.1805546814635164e-15 0.0 0.0
-7.659999847412109 -10.673399925231934 -285.55889892578125 5.095824016474193 -36.62657475639433 -172.74825959377418 0.052459481155611956 -38.91447541213406 0.8224503231188706 1.6268628393266157e-08 3.2566654957552146e-07 0.11703716889622302 -58.70311437544949 -21.56841004953117 17.519486729349232 -3.5397749447611994e-06 -1.4672734096210288e-06 140.0613382100951 -3.5454548890840017e-07 39.35284031584317 56.67534911193222 0.0 0.0 3.180554681463516e-15 76.25872799716124 -18.980382148337824 -29.003019310227003 2.700849108926785e-06 4.3039105307596794e-07 -134.2914609321835 -1.2587656195061952e-07 -18.629847535542623 -25.640075849146438 0.0 7.951386703658792e-16 0.0 -0.7025700096360278 -50.83394612813811 19.29701054946398 -1.522845450014595 10.536253349707636 -8.299510286207749 40.14627502383364 22.482712436283098 -60.85138635151006 1.590277340731758e-15 -6.3611093629270335e-15 -5.565970692561154e-15 -1.6810780555892062 -48.225845005133024 -17.95792193144494 2.363809799669661 5.016111202703856 4.182008969558189 -35.908818970363676 35.72455231607381 66.30942209406479 0.0 0.0 7.951386703658791e-16
-7.668399810791016 -10.65820026397705 -285.54010009765625 5.093448413799045 -36.798768747694204 -172.76934701126527 0.04615638139364865 -39.082309122805505 0.8361553451323583 -6.129184769404071e-08 -1.1052987672948118e-08 -0.09682771981133144 -69.14797129052658 -20.26048704958729 18.05221373835618 -6.7633002854569414e-06 1.6392833986848217e-06 138.32424405012304 1.7870552339182967e-06 29.758901380534475 48.34896930060806 -6.3611093629270335e-15 6.3611093629270335e-15 -3.1805546814635164e-15 76.40937703427424 -18.777810580509886 -28.850216905462215 -2.326713580355616e-06 -4.2156728734818596e-06 -134.3825341218199 -8.223575659029663e-07 -18.82476179539929 -25.276221472552205 0.0 0.0 0.0 -0.7074324732120036 -51.00857029443299 19.319349130236546 -1.5498968553141967 10.533741092161346 -8.298936008442622 40.173348103699276 22.452256437260314 -60.886704630128996 -1.5902773407317584e-15 6.3611093629270335e-15 7.951386703658792e-16 -1.642866554251129 -48.43766099902152 -17.928782480842386 2.3193448773076035 5.040162798572731 4.2026189932938065 -36.233985827640694 35.741761419082096 66.82118732150495 0.0 0.0 -7.95138670365879e-15
-7.6753997802734375 -10.644999504089355 -285.52337646484375 5.090211149151921 -36.95248334693554 -172.78785096563274 0.03884692450139093 -39.23326518960481 0.8490894118321265 -3.286076476269713e-08 -7.623235346306105e-08 -0.2715676197549348 -74.56236396942478 -19.536635296318167 18.21513145357694 -3.3076776896108628e-06 -1.1365428958478477e-06 137.98851616984868 1.8871234055485114e-06 23.178494861189076 43.177973224462804 0.0 -3.1805546814635168e-15 0.0 76.4667612050059 -18.599954633265256 -28.721505436405273 -3.2446256054316094e-07 6.184707147246674e-07 -134.4472708066675 1.947118508120421e-06 -18.76438847786136 -25.017453489749563 0.0 0.0 0.0 -0.7184167623672717 -51.16850903422155 19.338729396809693 -1.563597043719227 10.534768670412891 -8.302246660017795 40.18331266919756 22.31027932564641 -60.778066283382316 -1.5902773407317582e-15 0.0 0.0 -1.6189314498194856 -48.62926282926285 -17.912811876869203 2.2957978773437753 5.0838479736891635 4.237515975034864 -36.5274616253974 35.757160297090174 67.26260923809406 0.0 0.0 -1.987846675914698e-15
-7.68179988861084 -10.62809944152832 -285.50830078125 5.212105056802662 -37.09873122920776 -172.7337097958825 0.16338648889715984 -39.396765032591325 0.881972594024275 -2.8052781956676465e-08 -2.4412559376903355e-07 0.5841414052680844 -76.54787969654924 -18.40330456736274 18.036877366947085 -3.7713921728631698e-06 -2.8205552203605382e-06 137.81072114614545 1.2430911906651134e-06 21.105070692363633 39.63288713437045 0.0 -3.1805546814635168e-15 0.0 76.7255173245989 -20.310390528207623 -30.203454944437564 -9.002132216865205e-07 5.617534594124338e-07 -132.45515355494246 -1.1200460207555557e-06 -20.393376316381943 -24.371877544275822 0.0 -6.212020862233431e-18 0.0 -0.6199917840201564 -51.32953164572089 19.36784652910662 -1.5853821205427787 10.530906575930874 -8.30402241811955 40.24897179157772 22.25267213613065 -60.890428120559704 4.4139062980501586e-32 6.3611093629270335e-15 -7.951386703658792e-16 -1.5069547658884177 -48.81557990471591 -17.903565652704383 2.2983296954721 5.113336876354994 4.259758245435437 -37.35252102692364 35.52571550578091 68.40680015790961 6.620859447075238e-32 6.3611093629270335e-15 -1.1927080055488188e-15
-7.68720006942749 -10.611000061035156 -285.4949951171875 5.338871202525621 -37.23787612737768 -172.67780887354684 0.2951695906660094 -39.55178427414841 0.914416546350162 -3.9709766845693584e-08 9.466651560993111e-08 1.535176407558699 -79.04695805510394 -16.72420727897216 17.25958066561584 -5.69099943705517e-07 9.820146280332077e-07 137.00948860694143 -1.8746138815086235e-06 26.934090114371504 29.95156791995746 8.827812596100317e-32 -3.1805546814635168e-15 3.1805546814635168e-15 76.73949356515418 -22.00883012667824 -32.17226536282481 -8.972127524845528e-06 1.84166965989478e-06 -129.8390863502534 -5.078912762383721e-06 -22.930915550281714 -22.30886722547003 0.0 1.987846675914698e-16 0.0 -0.5185496514593603 -51.48493716202937 19.398016473185187 -1.5987898203549091 10.530406429400783 -8.309825993508714 40.317786552626764 22.23921300884021 -61.06504878318327 -1.5902773407317584e-15 0.0 0.0 -1.397265553708342 -48.994054960719104 -17.90512884545362 2.315042502442308 5.1489550913391415 4.285260488986316 -38.078337645560396 35.33653276756653 69.41657133607112 -1.7655625192200634e-31 -6.361109362927032e-15 -3.180554681463516e-15
-7.689800262451172 -10.565500259399414 -285.48699951171875 5.45767425152555 -37.46028295059533 -172.6340265710023 0.40149394454740206 -39.79473959725843 0.9525064347631522 -2.5703090370382753e-08 -2.34736245239772e-07 1.3440168982270524 -79.0714932198218 -11.93221796661283 21.758622206895556 8.562996703427389e-07 2.611593986924291e-07 121.82601092370736 -4.438172429525349e-06 22.481026600793268 36.955785339416344 8.827812596100317e-32 -3.1805546814635176e-15 3.1805546814635176e-15 72.82932392065652 -20.474986551338507 -31.4990182581999 1.275748612309482e-06 1.6970167463487163e-06 -120.43980326100963 6.760822215498317e-06 -18.0162563754651 -13.70017471747406 -6.3611093629270335e-15 1.3241718894150476e-31 -2.3854160110976376e-15 -0.42683087525041224 -51.7200648506104 19.4872974674635 -1.5989361452198345 10.530993068677155 -8.342650278755563 40.36265323618274 22.205740506034157 -61.35249386284889 -3.1805546814635168e-15 -1.5448672043175555e-31 5.565970692561154e-15 -1.2998293259137135 -49.24309074233178 -17.919491651844925 2.368566637350016 5.180288245401272 4.310942262685069 -38.683700751434614 35.21190815621932 70.31903048067863 0.0 0.0 -1.987846675914698e-15
-7.690999507904053 -10.48289966583252 -285.49029541015625 5.498381048400053 -37.7731516714616 -172.63541397799042 0.4056341473679871 -40.12957663357526 0.9839278226275466 -2.2751843476997903e-08 3.058313253423934e-07 -0.4460565240290954 -77.72122246666036 -11.204065939345695 28.115048730107123 -2.457607531731065e-06 1.0601605915135975e-06 106.74205076267027 -3.699722743879145e-06 20.81500501345194 52.334964026731875 0.0 0.0 -9.54166404439055e-15 71.81407685462139 -18.185237802218833 -31.095330844235352 4.5091319754186285e-06 1.5204458622103238e-06 -112.05714461759214 1.0068217817748914e-05 -36.750872332172264 -4.271100995801892 0.0 0.0 2.6835930124848418e-15 -0.41189368470076876 -52.03190044381103 19.65588487073638 -1.5809469789208792 10.538066167830664 -8.404902297221417 40.39632421670494 22.112685437830727 -61.72614132138542 -1.5902773407317584e-15 -2.2069531490250793e-32 1.5902773407317584e-15 -1.2749916914554273 -49.56399988910675 -17.99347824351658 2.416939411742006 5.211718134517579 4.348470678775016 -39.15365193437512 35.137448520117665 71.15905234578457 0.0 0.0 -3.975693351829395e-15
